<?xml version="1.0" standalone="no"?><!DOCTYPE svg PUBLIC "-//W3C//DTD SVG 1.1//EN" "http://www.w3.org/Graphics/SVG/1.1/DTD/svg11.dtd"><svg t="1596433487208" class="icon" viewBox="0 0 1024 1024" version="1.1" xmlns="http://www.w3.org/2000/svg" p-id="2966" xmlns:xlink="http://www.w3.org/1999/xlink" width="16" height="16"><defs><style type="text/css"></style></defs><path d="M512 32C246.88 32 32 246.88 32 512s214.88 480 480 480 480-214.88 480-480c-0.8-264.8-215.2-479.2-480-480z" fill="#1296DB" p-id="2967"></path><path d="M751.488 482.016H536.64V261.6a30.048 30.048 0 1 0-60.128 0v220.32H267.52a30.496 30.496 0 0 0-36 29.92c-0.96 15.68 10.88 29.12 26.56 30.08h217.76v214.368a30.048 30.048 0 1 0 60.16 0V541.92h214.4c15.584-1.44 29.088-10.912 30.08-26.592V512c-0.32-6.88-4.48-29.984-28.992-29.984z" fill="#FFFFFF" p-id="2968"></path></svg>