<?xml version="1.0" standalone="no"?><!DOCTYPE svg PUBLIC "-//W3C//DTD SVG 1.1//EN" "http://www.w3.org/Graphics/SVG/1.1/DTD/svg11.dtd"><svg t="1596781468209" class="icon" viewBox="0 0 1024 1024" version="1.1" xmlns="http://www.w3.org/2000/svg" p-id="5873" xmlns:xlink="http://www.w3.org/1999/xlink" width="16" height="16"><defs><style type="text/css"></style></defs><path d="M981.38908445 313.69329778c-25.66030222-60.66744889-62.38776889-115.14538667-109.16181334-161.91943111-46.77404445-46.77404445-101.25198222-83.50151111-161.92056889-109.16181334-62.82922667-26.57507555-129.54851555-40.04977778-198.30670222-40.04977778S376.52252445 16.03697778 313.69329778 42.61091555c-60.66744889 25.66030222-115.14538667 62.38776889-161.91943111 109.16181334-46.77404445 46.77404445-83.50151111 101.25198222-109.16181334 161.91943111-26.57507555 62.83036445-40.04977778 129.54965333-40.04977778 198.30784s13.47470222 135.47747555 40.04864 198.30670222c25.66030222 60.66744889 62.38776889 115.14538667 109.16181334 161.92056889 46.77404445 46.77404445 101.25198222 83.50264889 161.91943111 109.16181334 62.82922667 26.57393778 129.54965333 40.04864 198.30670222 40.04864s135.47747555-13.47470222 198.30670223-40.04864c60.66744889-25.66030222 115.14538667-62.38776889 161.92056888-109.16181334s83.50264889-101.25198222 109.16181334-161.92056889c26.57393778-62.82922667 40.04864-129.54851555 40.04864-198.30670222s-13.47356445-135.47747555-40.04750222-198.30670222zM512 949.19338667c-241.06894222 0-437.19338667-196.12444445-437.19338667-437.19338667S270.93105778 74.80661333 512 74.80661333 949.19338667 270.93105778 949.19338667 512 753.06894222 949.19338667 512 949.19338667z" p-id="5874" fill="#515151"></path><path d="M771.41333333 475.59111111H548.40888889V252.58666667c0-17.59459555-16.30094222-31.85777778-36.40888889-31.85777778s-36.40888889 14.26318222-36.40888889 31.85777778v223.00444444H252.58666667c-17.59459555 0-31.85777778 16.30094222-31.85777778 36.40888889s14.26318222 36.40888889 31.85777778 36.40888889h223.00444444v223.00444444c0 17.59459555 16.30094222 31.85777778 36.40888889 31.85777778s36.40888889-14.26318222 36.40888889-31.85777778V548.40888889h223.00444444c17.59459555 0 31.85777778-16.30094222 31.85777778-36.40888889s-14.26318222-36.40888889-31.85777778-36.40888889z" p-id="5875" fill="#515151"></path></svg>