<?xml version="1.0" standalone="no"?><!DOCTYPE svg PUBLIC "-//W3C//DTD SVG 1.1//EN" "http://www.w3.org/Graphics/SVG/1.1/DTD/svg11.dtd"><svg t="1596781438118" class="icon" viewBox="0 0 1307 1024" version="1.1" xmlns="http://www.w3.org/2000/svg" p-id="4930" xmlns:xlink="http://www.w3.org/1999/xlink" width="20.421875" height="16"><defs><style type="text/css"></style></defs><path d="M70.111319 1024C31.438979 1024 0 992.88783 0 954.629447V69.370553C0 31.11217 31.438979 0 70.111319 0h1167.011404C1275.795064 0 1307.234043 31.11217 1307.234043 69.370553v885.258894C1307.234043 992.88783 1275.795064 1024 1237.122723 1024H70.111319z m77.780426-943.016851c-36.406468 0-66.037106 29.30383-66.037107 65.361702V776.497021L325.719149 551.761702a31.155745 31.155745 0 0 1 22.070468-9.041702c8.322723 0 16.166128 3.224511 22.070468 9.041702l194.56 192.555575 410.166468-405.852596a40.524255 40.524255 0 0 1 28.650213-11.721532c10.806468 0 20.981106 4.161362 28.606638 11.721532l193.557787 191.509787V146.344851c0-36.036085-29.630638-65.361702-66.058893-65.361702H147.913532z" p-id="4931" fill="#515151"></path></svg>