<?xml version="1.0" standalone="no"?><!DOCTYPE svg PUBLIC "-//W3C//DTD SVG 1.1//EN" "http://www.w3.org/Graphics/SVG/1.1/DTD/svg11.dtd"><svg t="1596783772964" class="icon" viewBox="0 0 1032 1024" version="1.1" xmlns="http://www.w3.org/2000/svg" p-id="8869" xmlns:xlink="http://www.w3.org/1999/xlink" width="16.125" height="16"><defs><style type="text/css"></style></defs><path d="M382.593407 734.497502c0-197.434565 160.607393-358.041958 358.041958-358.041958 32.735265 0 64.447552 4.091908 94.113886 12.275725V75.7003c0-41.942058-33.758242-75.7003-75.7003-75.7003H81.838162C39.896104 0 6.137862 33.758242 6.137862 75.7003v790.761238c0 40.919081 33.758242 74.677323 75.7003 74.677323h367.248751c-41.942058-58.30969-66.493506-129.918082-66.493506-206.641359zM194.365634 150.377622h452.155845c10.22977 0 19.436563 4.091908 26.597402 11.252748 7.160839 7.160839 11.252747 16.367632 11.252747 26.597402s-4.091908 19.436563-11.252747 26.597403c-7.160839 7.160839-16.367632 11.252747-26.597402 11.252747H194.365634c-10.22977 0-19.436563-4.091908-26.597402-11.252747-7.160839-7.160839-11.252747-16.367632-11.252747-26.597403s4.091908-19.436563 11.252747-26.597402c7.160839-7.160839 17.390609-11.252747 26.597402-11.252748z m0 226.077922h150.377623c20.45954 0 37.85015 16.367632 37.85015 37.85015s-16.367632 37.85015-37.85015 37.85015H194.365634c-20.45954 0-37.85015-16.367632-37.850149-37.85015s17.390609-37.85015 37.850149-37.85015z m75.7003 301.778222H194.365634c-10.22977 0-19.436563-4.091908-26.597402-11.252747-7.160839-7.160839-11.252747-16.367632-11.252747-26.597403s4.091908-19.436563 11.252747-26.597402c7.160839-7.160839 16.367632-11.252747 26.597402-11.252747h75.7003c10.22977 0 19.436563 4.091908 26.597403 11.252747 7.160839 7.160839 11.252747 16.367632 11.252747 26.597402s-4.091908 19.436563-11.252747 26.597403c-7.160839 7.160839-16.367632 11.252747-26.597403 11.252747z m0 0" p-id="8870" fill="#515151"></path><path d="M745.75025 453.178821C588.211788 453.178821 460.33966 581.050949 460.33966 738.589411c0 157.538462 127.872128 285.410589 285.41059 285.410589s285.410589-127.872128 285.410589-285.410589c0-157.538462-127.872128-285.410589-285.410589-285.41059z m132.987013 319.168831H613.786214c-18.413586 0-34.781219-15.344655-34.781219-34.781218 0-18.413586 15.344655-34.781219 34.781219-34.781219h264.951049c18.413586 0 34.781219 15.344655 34.781219 34.781219s-16.367632 34.781219-34.781219 34.781218z" p-id="8871" fill="#515151"></path></svg>