<?xml version="1.0" standalone="no"?><!DOCTYPE svg PUBLIC "-//W3C//DTD SVG 1.1//EN" "http://www.w3.org/Graphics/SVG/1.1/DTD/svg11.dtd"><svg t="1596783748788" class="icon" viewBox="0 0 1024 1024" version="1.1" xmlns="http://www.w3.org/2000/svg" p-id="7962" xmlns:xlink="http://www.w3.org/1999/xlink" width="16" height="16"><defs><style type="text/css"></style></defs><path d="M1.30729 502.9h292.2v72H1.30729z" p-id="7963" fill="#515151"></path><path d="M257.50729 575.5H37.30729C17.10729 575.9 0.40729 559.8 0.00729 539.6c-0.4-20.2 15.7-36.9 35.9-37.3h221.6c20.2-0.4 36.9 15.7 37.3 36 0.4 20.2-15.7 36.9-36 37.3-0.4-0.1-0.8-0.1-1.3-0.1z m-220.2-72c-19.5-0.4-35.7 15.2-36 34.7-0.4 19.5 15.2 35.7 34.7 36h221.5c19.5 0.4 35.7-15.2 36-34.7 0.4-19.5-15.2-35.7-34.7-36H37.30729z m0 0" p-id="7964" fill="#515151"></path><path d="M111.40729 392.8h72V685h-72z" p-id="7965" fill="#515151"></path><path d="M147.40729 685.6c-20.2 0-36.6-16.4-36.6-36.6V428.8c-0.4-20.2 15.7-36.9 35.9-37.3 20.2-0.4 36.9 15.7 37.3 35.9V649c0 20.2-16.4 36.6-36.6 36.6z m0-292.2c-19.5 0-35.3 15.8-35.4 35.4V649c-0.4 19.5 15.2 35.7 34.7 36 19.5 0.4 35.7-15.2 36-34.7V428.8c0-19.5-15.8-35.4-35.3-35.4z m0 0" p-id="7966" fill="#515151"></path><path d="M24.20729 729.8c-14 0-22.4-11.4-22.4-25.4V349c0-8.8 4.5-17 12-21.6l115-71.3v-48.3c0-14 8.4-25.4 22.4-25.4 14 0 22.4 11.4 22.4 25.4v62.5c0 8.8-4.5 17-12 21.6l-115 71.3v341.2c-0.1 14-8.4 25.4-22.4 25.4z m655.5-394.6c-4.7 0-9.3-1.3-13.4-3.8l-54.7-37c-7.5-4.6-12-12.8-12-21.6v-67c0-14 9.3-25.4 23.4-25.4 14 0 22.4 11.4 22.4 25.4v52.9l47.6 29.5c11.9 7.4 14.6 22 7.2 34-4.6 7.4-11.8 13-20.5 13z m0 0" p-id="7967" fill="#515151"></path><path d="M682.70729 217.1H545.60729c-14 0-25.4-8.4-25.4-22.4 0-14 11.4-22.4 25.4-22.4h117.6V79.8H109.10729v92.5h304.4c14 0 25.4 8.4 25.4 22.4 0 14-11.4 22.4-25.4 22.4H89.70729c-14 0-25.4-11.4-25.4-25.4V60.4c0-14 11.4-25.4 25.4-25.4h592.9c14 0 25.4 11.4 25.4 25.4v131.3c0.1 14.1-11.3 25.4-25.3 25.4z m218.1 174.1c-3.4 0-6.6-1.3-9-3.7-7-7.1-15.1-13.1-23.8-17.9-6.1-3.4-8.3-11.1-4.9-17.3 3.4-6.1 11-8.3 17.1-5 10.9 5.9 20.9 13.4 29.6 22.2 5 5 5 13 0 18-2.4 2.4-5.6 3.7-9 3.7z m-197.4 31.7c-7 0-12.7-5.7-12.7-12.7 0-3.4 1.3-6.6 3.7-9l31.7-31.7c20-20.2 46.2-33.1 74.3-36.8 6.9-0.9 13.3 3.9 14.3 10.9 0.5 3.3-0.4 6.7-2.5 9.4-2 2.7-5.1 4.4-8.4 4.9-22.7 3-43.7 13.4-59.8 29.7l-31.7 31.7c-2.3 2.3-5.6 3.7-8.9 3.6z m64.4 333.3c-6.7 0-13.2-2.7-17.9-7.5L512.10729 510.9c-9.9-9.9-9.9-26 0-35.9 9.9-9.9 26-9.9 35.9 0l237.8 237.8c9.9 9.9 9.9 26 0 35.9-4.7 4.8-11.2 7.5-18 7.5z m0 0" p-id="7968" fill="#515151"></path><path d="M847.30729 615.3L630.10729 832.5h71.8l181.3-181.3c9.9-9.9 9.9-26 0-35.9-9.9-9.9-26-9.9-35.9 0z m0 0" p-id="7969" fill="#515151"></path><path d="M963.90729 280.1c-80.2-80.2-210.2-80.2-290.4 0L317.10729 636.4c-80.1 80.1-80.1 210.4 0 290.5 70.1 69.9 180 80 261.7 24-12.8-12.8-20.1-30.1-20.3-48.1-66.9 53.1-164.1 41.9-217.2-24.9-48.8-61.5-43.8-149.9 11.7-205.4L709.40729 316c60.4-60.4 158.3-60.4 218.6 0 60.4 60.4 60.4 158.2 0 218.6-9.9 9.9-9.9 26 0 35.9 9.9 9.9 26 9.9 35.9 0 80.1-80 80.1-210.4 0-290.4z m0 0" p-id="7970" fill="#515151"></path><path d="M729.90729 836.3h42.6V796c0-14-11.4-25.4-25.4-25.4-14 0-25.4 11.4-25.4 25.4v36.5h3.9l-0.8 138.6h-97c-24.1 0-46.4-6.5-59-27H99.20729c-25.7 0-52.6-26.9-52.6-52.6v-41.3c0-14-8.4-25.4-22.4-25.4-14 0-22.4 11.4-22.4 25.4v41.4c0.1 53.8 43.6 97.3 97.4 97.4h576c19.9 0 39.3-6.1 55.6-17.5l-0.9-135.2z m0 0" p-id="7971" fill="#515151"></path><path d="M836.60729 988.3h-210c-48.4 0.6-88.2-38.2-88.8-86.6-0.6-48.4 38.2-88.2 86.6-88.7h212.1c48.4 0.6 87.2 40.3 86.6 88.7-0.5 47.5-38.9 86-86.5 86.6z m-210-150c-34.4-0.5-62.7 27-63.2 61.4s27 62.7 61.4 63.2h211.8c34.4-0.5 61.9-28.8 61.4-63.2-0.5-33.7-27.7-60.9-61.4-61.4h-210z m0 0" p-id="7972" fill="#515151"></path><path d="M731.60729 988.3c-7 0-12.7-5.7-12.7-12.7V835.4c0.1-7 5.7-12.6 12.7-12.6 7 0 12.6 5.6 12.7 12.6v140.2c0 7-5.7 12.7-12.7 12.7z m0 0" p-id="7973" fill="#515151"></path></svg>