<?xml version="1.0" standalone="no"?><!DOCTYPE svg PUBLIC "-//W3C//DTD SVG 1.1//EN" "http://www.w3.org/Graphics/SVG/1.1/DTD/svg11.dtd"><svg t="1596679393865" class="icon" viewBox="0 0 1024 1024" version="1.1" xmlns="http://www.w3.org/2000/svg" p-id="3209" xmlns:xlink="http://www.w3.org/1999/xlink" width="16" height="16"><defs><style type="text/css"></style></defs><path d="M357.73 473a55.27 55.27 0 1 0-55.27-55.27A55.27 55.27 0 0 0 357.73 473zM666.66 473a55.27 55.27 0 1 0-55.26-55.27A55.28 55.28 0 0 0 666.66 473zM505.56 793.1c123 0 222.71-89.1 222.71-199H282.86c0 109.9 99.71 199 222.7 199z" p-id="3210"></path><path d="M877.59 356.05a405 405 0 1 0 31.74 157.17 402.46 402.46 0 0 0-31.74-157.17zM755.72 763.37a353.78 353.78 0 1 1 103.61-250.15 351.46 351.46 0 0 1-103.61 250.15z" p-id="3211"></path></svg>