<?xml version="1.0" standalone="no"?><!DOCTYPE svg PUBLIC "-//W3C//DTD SVG 1.1//EN" "http://www.w3.org/Graphics/SVG/1.1/DTD/svg11.dtd"><svg t="1596781488536" class="icon" viewBox="0 0 1024 1024" version="1.1" xmlns="http://www.w3.org/2000/svg" p-id="6943" xmlns:xlink="http://www.w3.org/1999/xlink" width="16" height="16"><defs><style type="text/css"></style></defs><path d="M636.16 213.333333H91.306667S0 216.021333 0 304.597333v417.493334C0 810.666667 88.234667 810.666667 88.234667 810.666667H633.173333s91.306667 0 91.306667-88.576l2.986667-417.493334C727.466667 213.333333 636.16 213.333333 636.16 213.333333zM255.658667 373.461333l223.402666 138.154667-223.402666 138.197333V373.461333z m732.16-118.485333l-173.141334 144.981333c-5.376 5.376-8.064 10.752-8.064 16.128v186.496c0 5.376 2.688 13.44 8.064 16.085334l173.141334 134.186666a20.48 20.48 0 0 0 13.397333 5.376c2.688 0 5.376 0 10.752-2.688 8.064-2.688 10.752-10.752 10.752-18.773333V271.104a20.181333 20.181333 0 0 0-13.44-18.773333c-8.064-2.730667-16.085333-2.730667-21.461333 2.645333z" p-id="6944" fill="#515151"></path></svg>