<?xml version="1.0" standalone="no"?><!DOCTYPE svg PUBLIC "-//W3C//DTD SVG 1.1//EN" "http://www.w3.org/Graphics/SVG/1.1/DTD/svg11.dtd"><svg t="1596679366877" class="icon" viewBox="0 0 1024 1024" version="1.1" xmlns="http://www.w3.org/2000/svg" p-id="2416" xmlns:xlink="http://www.w3.org/1999/xlink" width="16" height="16"><defs><style type="text/css"></style></defs><path d="M511.337412 79.028706a462.366118 462.366118 0 1 1 0 924.79247 462.366118 462.366118 0 0 1 0-924.79247z m0 59.331765a403.094588 403.094588 0 1 0 0 806.189176 403.094588 403.094588 0 0 0 0-806.189176z" p-id="2417"></path><path d="M576.873412 227.026824L513.505882 290.334118a356.111059 356.111059 0 0 1 0 503.024941l63.36753 63.307294a444.536471 444.536471 0 0 0 0-629.639529z" p-id="2418"></path><path d="M461.583059 342.377412L398.275765 405.684706a192.813176 192.813176 0 0 1 0 272.50447l63.307294 63.36753a281.6 281.6 0 0 0 0-399.179294zM346.352941 457.607529L262.565647 541.515294l83.727059 83.727059a118.543059 118.543059 0 0 0 0-167.574588z" p-id="2419"></path></svg>